<?xml version="1.0" encoding="utf-8"?>
<!-- Generator: Adobe Illustrator 26.0.1, SVG Export Plug-In . SVG Version: 6.00 Build 0)  -->
<svg version="1.1" id="Layer_1" xmlns="http://www.w3.org/2000/svg" xmlns:xlink="http://www.w3.org/1999/xlink" x="0px" y="0px"
	 viewBox="0 0 924.8 987.4" style="enable-background:new 0 0 924.8 987.4;" xml:space="preserve">
<style type="text/css">
	.st0{fill:#F4FAFE;}
	.st1{fill:#1A1A1A;}
</style>
<path class="st0" d="M924.8,4.9c-89.3,8.9-113.7,97-318.3,18.4c-129.7-49.8-208.7-6.6-244,7.6c-18.5,7.4-35.9,18.3-50.5,32.4
	c-35.5,34.3-43.9,87.3-28.9,137l0,0c7.9,26.6,1.7,58.5-19,84.5c-23.3,29.2-58.7,42.9-90.2,38.1c-9.6-1.9-19.5-2.9-29.7-2.9
	C65,320,0,381,0,457.7c0,36.1,14.2,68.9,37.5,93.6c17.5,19.5,28.4,47.1,28.4,77.7c0,25.6-7.6,49.1-20.4,67.6
	c-20.1,24.1-32.1,54.1-32.1,86.5c0,79.5,71.5,143.9,159.6,143.9c29.3,0,56.8-7.1,80.5-19.6c38.3-18,86.5-28.8,138.9-28.8
	c79.9,0,150,24.9,190,62.5l0,0c31.7,28.5,74.9,46.1,122.6,46.1c65,0,121.8-32.7,152.4-81.4c9.1-12.5,36.2-44.6,67.4-35.7L924.8,4.9
	L924.8,4.9z"/>
<path class="st1" d="M537.8,659.8c-6.3,0-10-4.3-10-8.4c0-1.1,0.3-2.1,0.8-2.9c0.5,2.1,1.2,6.2,5.7,6.8c9.2,1.3,16.6-12.4,21.9-37.4
	l1.4-5.7c1-4,2.1-8.9,2.8-11.4c-1.2,0-8.9,0-15.1,0c2.8,3.1,4.2,7.7,4.2,12.2c0,11.7-8.9,24.7-20.9,24.7c-9.8,0-12.4-9.6-12.4-15.3
	c0-13,9.9-25.7,19.9-25.8v0c0,0,24.1,0,25.4,0c0.4-1.4,1.1-4.1,1.1-4.1c3.3-12.2,9.8-20.4,18.7-20.4c6.8,0,10.2,5.8,10.2,8.9
	c0,1.2-0.5,2.7-1.5,3.8c0-0.7,0.4-5.5-4.5-7.3c-12.1-4.4-16.4,19-16.4,19l0,0h13.1c5.9,0,8.3-1.9,8.3-1.9s-1.2,6-10.8,6h-11.6
	c-0.4,1.3-2.9,10.9-2.9,10.9c-2.6,9.5-5.4,20.2-7.7,27.5C556.4,643.9,550.7,659.8,537.8,659.8L537.8,659.8z M444.6,694.7H432V541h12
	c11.5,0,61,2.8,61,75.3C505,688.8,470.1,694.7,444.6,694.7L444.6,694.7z M538,732.5h174.6l-16-52c-2.3,6.5-10.6,12.1-24.7,12.1
	h-64.5v-64.2c0,0,33.3,0,47.5,0c21.7,0,29.3-33.5,29.3-33.5c-2.8,2.9-6.5,4.7-24.6,4.7h-52.2v-56.6l58.9,0.2c0.1,0.1,10.9,0,11.8,0
	c14.1,0,22.2,8.9,22.2,15.4l9.6-53.7H539.3c3.9,3.4,15.2,11.7,15.2,26c0,0,0,13.7,0,39.5c-0.7-2.1-1.5-4.2-2.3-6.3
	c-14.8-36.5-42.8-59.5-94.8-59.5c-5.7,0-93.2,0.2-93.2,0.2c4.3,3.8,16.4,13.4,16.4,28v175c-2.3,12.5-12.1,21-16.1,24.5
	c0,0,85.6-0.1,92.2-0.4c6.6-0.2,12.6-1.1,18-1.1c50.1,0,75-48.9,79.7-62.3v35.7C554.5,719.2,542.4,728.7,538,732.5L538,732.5z
	 M537.1,600.8c-6,0-12.6,15.5-12.6,26.1c0,3.2,1.4,6.6,4.1,6.6c5.8,0,13.1-14.3,13.1-25.6C541.7,604.7,540.9,600.8,537.1,600.8
	L537.1,600.8z M579.5,292.7c-0.3,0.5-1.3-0.4-1.3-0.4l-3.2-3.4c-0.8-0.6-0.6-1.2,0.3-1.6c0.4-0.2,1.2-0.5,2-0.8v0
	c1.3-0.5,2.1-0.8,2.1-0.8c0.5-0.1,1-0.4,1.3,0.2C581.3,287.5,580.8,291,579.5,292.7L579.5,292.7z M571.2,297.9
	c-6.9-2.1-21.7-4-32.8-3.9c-11.2,0-25.9,1.8-32.8,3.9c-2.8,0.9-2.7-1.3-1.3-2.4c2.4-1.7,7.3-3,13-3.9c6.7-1,15.3-1.7,21.2-1.8v0v0
	c5.9,0,14.5,0.7,21.2,1.8c5.7,0.9,10.6,2.2,13,3.9C573.9,296.6,574,298.7,571.2,297.9L571.2,297.9z M569.3,305.5
	c-1.6,0.5-3.2-1-2.8-2.8c0.3-1.3-1.3-1.9-3.5-2.3c-7.9-1.2-21.7-1.4-24.6-1.5c-2.9,0-16.6,0.3-24.6,1.5c-2.2,0.3-3.8,1-3.5,2.3
	c0.4,1.8-1.1,3.3-2.8,2.8c-5.5-1.2-4.1-4.4-1.9-5.6c4.9-2.2,12.2-3.4,32.7-4c20.5,0.5,27.8,1.7,32.7,4
	C573.4,301.1,574.7,304.3,569.3,305.5L569.3,305.5z M501.9,288.9l-3.2,3.4c0,0-1,1-1.3,0.4c-1.3-1.7-1.9-5.2-1.2-6.8
	c0.3-0.6,0.8-0.3,1.3-0.2c0,0,0.8,0.3,2.1,0.8v0c0.8,0.3,1.6,0.6,2,0.8C502.5,287.7,502.7,288.3,501.9,288.9L501.9,288.9z
	 M517.1,281.6c2.8-0.7,5.4,0.1,5.9,1.9c0.4,1.8-1.5,3.8-4.3,4.6c-0.4,0.1-1.3,0.2-1.7,0.2c-2.1,0.1-3.8-0.7-4.2-2.2
	C512.3,284.4,514.3,282.3,517.1,281.6L517.1,281.6z M533.6,282.6c0,0,4-2.4,4.3-2.5c0,0,0,0,0,0h0.6l0,0c0,0,0.3-0.2,0.6,0
	c0.2,0.1,4.3,2.5,4.3,2.5c0.5,0.3,0.5,1,0.1,1.4c-0.4,0.3-4.6,3.3-4.6,3.3l-0.3,0.1l-0.3-0.1c0,0-4.2-2.9-4.6-3.3
	C533,283.6,533,282.8,533.6,282.6L533.6,282.6z M553.9,283.5c0.4-1.8,3-2.6,5.9-1.9c2.8,0.7,4.7,2.8,4.3,4.6
	c-0.3,1.4-2.1,2.3-4.2,2.2c-0.4,0-1.3-0.1-1.7-0.2C555.4,287.3,553.4,285.3,553.9,283.5L553.9,283.5z M590.7,270.5l-8.5-4.3v9.4
	l-5.3-4.3l-3.3,8.3c0,0,5.6-0.4,7.2,0.6c-1.2,1.4-2.6,2.2-4.5,2.9l0,0c-6.5,2-14.4-2.6-13.4-5.5c1.7-5.4,6.6-2.6,5.6,0.8
	c7.2-2.6,3.7-11.3-3.3-8.4c2.7-3.6,2.7-8.6-0.4-11.3c-4.5,0.8-5.4,5.6-4.1,10.5c-9.7-5.3-10.5,5.6-7,6.4c1.9-3.4,5.8-1.5,4.7,1.3
	c-2.1,5.6-16.7,3.8-16.7-3.2c0-3.4,4.1-2.3,7.8-0.8v-12.2l-7.4,2.8l3.1-8.8h-13.6l3.1,8.8l-7.4-2.8V273c3.7-1.5,7.8-2.6,7.8,0.8
	c0,7.1-14.6,8.8-16.7,3.2c-1-2.8,2.9-4.7,4.7-1.3c3.5-0.9,2.7-11.8-7-6.4c1.2-4.9,0.4-9.6-4.1-10.5c-3.1,2.8-3.1,7.7-0.4,11.3
	c-7-3-10.5,5.8-3.3,8.4c-1-3.4,3.9-6.2,5.6-0.8c1,2.9-6.9,7.4-13.4,5.5l0,0c-1.9-0.7-3.3-1.6-4.5-2.9c1.6-1.1,7.2-0.6,7.2-0.6
	l-3.3-8.3l-5.3,4.3v-9.4l-8.4,4.3l7.6,14.6c-0.4,2.8-0.2,5.8,2.1,9c2.3,3.2,1.2,6.6,1.2,6.6c-0.6,1.9,2.3,4.1,4.9,5.1
	c11,4.2,35.7,4.3,36.4,4.3c0,0,0,0,0,0c0.7,0,25.5-0.1,36.4-4.3c2.7-1.1,5.6-3.2,4.9-5.1c0,0-1-3.4,1.2-6.6c2.3-3.2,2.5-6.2,2.1-9
	L590.7,270.5L590.7,270.5z M609.8,389.5c-7.3,9.8-23.7,15.4-41.8,5.6c9.6-26.4,18.6-44.8,28.2-56.5
	C617.2,355.1,617.8,378.7,609.8,389.5L609.8,389.5z M552.9,396.3c-4.4,11.2-9.2,22-14.5,31.8c-5.3-9.8-10.1-20.6-14.5-31.8
	c-0.1-0.1-0.1-0.3-0.2-0.4c6.1-5.4,11.2-11.7,14.7-18.2c3.5,6.5,8.6,12.8,14.7,18.2C553,396,553,396.2,552.9,396.3L552.9,396.3z
	 M467,389.5c-8-10.8-7.5-34.5,13.5-50.9c9.7,11.8,18.7,30.1,28.2,56.6C490.7,404.9,474.3,399.3,467,389.5L467,389.5z M630.8,321.6
	c-14.5-4.7-26.5-1.9-36.9,6.3c-9.8-4.8-21-6.7-32.5-4.1c10.7,2.1,19.5,5.4,26.6,9.4c-11.8,12.2-21.7,31.5-31.3,54
	c-6.2-5.5-12.4-13-18.3-22.8c-6,9.9-12.2,17.4-18.4,22.9c-9.6-22.5-19.5-41.8-31.3-54c7.1-4,15.9-7.3,26.6-9.4
	c-11.5-2.5-22.6-0.6-32.4,4.1c-10.4-8.2-22.3-11-36.9-6.3c10.9-0.4,20.3,2.9,28.9,11c-21.6,15.2-33,44.7-18.2,65.8
	c13.9,19.8,36.6,17.5,55.4,6.2c0.1,0.2,0.1,0.4,0.2,0.6c4.8,13.5,11,25.8,18.1,36.5c-17.3,26.4-39,41.7-66.7,32
	c20.2,20.8,50.8,8.8,74.8-21c24,29.8,54.5,41.8,74.7,21c-27.7,9.7-49.4-5.6-66.7-32c7.1-10.7,13.3-23,18.1-36.5
	c0.1-0.2,0.2-0.4,0.2-0.6c18.7,11.3,41.5,13.6,55.4-6.2c14.7-21.1,3.3-50.6-18.3-65.8C610.5,324.5,619.9,321.2,630.8,321.6
	L630.8,321.6z"/>
</svg>
